<svg width="64" height="64" viewBox="0 0 64 64" fill="none" xmlns="http://www.w3.org/2000/svg">
<g clip-path="url(#clip0_4_20)">
<path fill-rule="evenodd" clip-rule="evenodd" d="M64 32C64 40.9517 60.3244 49.0448 54.4 54.8526V9.14741C60.3244 14.9552 64 23.0483 64 32ZM32 64C34.0508 64 36.0565 63.8071 38 63.4384V42.4H25.6V63.3599C27.6679 63.7796 29.8082 64 32 64ZM21.2 62.1317C18.9379 61.3208 16.7937 60.2624 14.8 58.9892V5.01081C16.7937 3.73758 18.9379 2.67921 21.2 1.86832V6.4V10.8H25.6H38H42.4V6.4V1.72794C44.6581 2.50354 46.8021 3.52469 48.8 4.7595V59.2405C46.8021 60.4753 44.6581 61.4965 42.4 62.2721V42.4V38H38H34.4V20.8H42.8V16.8H20.8V20.8H29.2V38H25.6H21.2V42.4V62.1317ZM38 0.561583C36.0565 0.192913 34.0508 0 32 0C29.8082 0 27.6679 0.220354 25.6 0.640116V6.4H38V0.561583ZM9.2 54.4535C3.51064 48.6769 0 40.7484 0 32C0 23.2516 3.51064 15.3231 9.2 9.54648V54.4535Z" fill="black"/>
</g>
<defs>
<clipPath id="clip0_4_20">
<rect width="64" height="64" fill="white"/>
</clipPath>
</defs>
</svg>
