<svg width="160" height="160" viewBox="0 0 160 160" fill="none" xmlns="http://www.w3.org/2000/svg">
<g clip-path="url(#clip0_4_2)">
<path fill-rule="evenodd" clip-rule="evenodd" d="M160 80C160 102.379 150.811 122.612 136 137.131V22.8685C150.811 37.3879 160 57.6208 160 80ZM80 160C85.1269 160 90.1412 159.518 95 158.596V106H64V158.4C69.1698 159.449 74.5205 160 80 160ZM53 155.329C47.3448 153.302 41.9843 150.656 37 147.473V12.527C41.9843 9.34396 47.3448 6.69802 53 4.6708V16V27H64H95H106V16V4.31985C111.645 6.25886 117.005 8.81173 122 11.8988V148.101C117.005 151.188 111.645 153.741 106 155.68V106V95H95H86V52H107V42H52V52H73V95H64H53V106V155.329ZM95 1.40396C90.1412 0.482284 85.1269 0 80 0C74.5205 0 69.1698 0.550884 64 1.60029V16H95V1.40396ZM23 136.134C8.77661 121.692 0 101.871 0 80C0 58.1289 8.77661 38.3077 23 23.8662V136.134Z" fill="black"/>
</g>
<defs>
<clipPath id="clip0_4_2">
<rect width="160" height="160" fill="white"/>
</clipPath>
</defs>
</svg>
